# xmcd
#
# Track frame offsets:
#	150
#	16760
#	33102
#	49683
#	66014
#	81148
#	97628
#	113510
#	130367
#	147529
#	164630
#
# Disc length: 2453 seconds
#
# Revision: 1
# Processed by: cddbd v1.5.2PL0 Copyright (c) Steve Scherf et al.
# Submitted via: audiograbber 1.83.01
#
DISCID=8409930b
DTITLE=Herzkraft - Keine Angst vor Gefühlen
DYEAR=1900
DGENRE=Country
TTITLE0=So wie früher
TTITLE1=Ich hab´sie nur im Traum erfunden
TTITLE2=Die Sonne scheint am Horizont
TTITLE3=Ich weiss jetzt wieder was Liebe ist
TTITLE4=Feuer
TTITLE5=Gib uns eine Chance
TTITLE6=Ich bin dein Held
TTITLE7=Rosie
TTITLE8=Geliebt Verloren
TTITLE9=Rhythmus der Nacht
TTITLE10=Sei einfach du
EXTD=
EXTT0=
EXTT1=
EXTT2=
EXTT3=
EXTT4=
EXTT5=
EXTT6=
EXTT7=
EXTT8=
EXTT9=
EXTT10=
PLAYORDER=
